<?xml version="1.0" encoding="UTF-8"?>
<!DOCTYPE svg PUBLIC "-//W3C//DTD SVG 1.1//EN" "http://www.w3.org/Graphics/SVG/1.1/DTD/svg11.dtd">
<!-- Creator: CorelDRAW 2019 (64-Bit) -->
<?xml-stylesheet href="Безымянный-1.css" type="text/css"?>
<svg xmlns="http://www.w3.org/2000/svg" xml:space="preserve" width="43.675mm" height="43.7604mm" version="1.1" style="shape-rendering:geometricPrecision; text-rendering:geometricPrecision; image-rendering:optimizeQuality; fill-rule:evenodd; clip-rule:evenodd"
viewBox="0 0 5120.66 5130.67"
 xmlns:xlink="http://www.w3.org/1999/xlink">
 <g id="Слой_x0020_1">
  <metadata id="CorelCorpID_0Corel-Layer"/>
  <g id="_2488941535664">
   <path class="fil0" d="M2990.38 3430.45l442.48 -447.64 590.36 534.95c39.01,37.55 55.74,56.88 98.79,91.23l440.87 409.23c153.25,151.68 367.75,260.94 367.75,512.37 0,266.99 -267.05,469.35 -531.61,371.59 -129.23,-47.75 -180.67,-132.5 -260.87,-219.2 -20.71,-22.37 -38.29,-37.86 -60.28,-59.74 -26.8,-26.66 -31.75,-38.75 -54.94,-65.07l-460.06 -500.07c-19.44,-22.08 -38.7,-38.91 -60.03,-59.99 -27.28,-26.98 -31.71,-36.36 -55.36,-64.65 -76.07,-90.99 -427.36,-446.77 -457.11,-503.01zm-2622.76 -3430.45l32.9 0c34.33,7.07 79.13,34.48 157.66,81.9 54.61,32.96 100.4,60.22 156.24,93.8 538.25,323.7 488.05,227.1 485.23,524.92 -0.67,69.36 -5.35,61.08 32.5,97.5 166.41,160.14 1139.29,1152.72 1200.65,1194.64l727.61 -732.58c-5.98,-71.84 -30,-122.34 -30,-210.03 0,-301.2 79.06,-546.29 287.48,-752.64 80.46,-79.66 170.34,-149.14 279.08,-200.99 115.63,-55.13 252.36,-89.09 389.6,-96.5l112.51 0c65.46,3.63 129.73,13.74 190.52,30.96 58.74,16.64 130.99,32.58 130.99,109.06 0,80.77 -41.12,96.12 -97.52,152.51l-230.02 230.03c-124.47,124.47 -102.52,54.71 -102.52,297.53 0,26.11 196.23,240.03 230.03,240.03 222.54,0 153.78,21.24 287.54,-112.52 42.44,-42.44 77.57,-77.56 120.01,-120.01 52.54,-52.53 191.14,-217.52 262.53,-217.52 101.12,0 130.01,164.34 130.01,230.03l0 277.69c-6.52,144.07 -35.84,268.64 -147.88,434.53 -78.47,116.19 -149.11,187.09 -260.56,269.5 -94.63,69.97 -236.66,136.3 -375.87,164.19 -124.08,24.87 -377.19,26.08 -463.4,-13.33l-582.52 587.64c34.88,52.09 87.69,94.97 140.01,130.01 40.64,-27.21 62.63,-80.01 120.02,-80.01 61.15,0 110.01,26.02 110.01,90.01 0,86.16 -35.74,73.91 -80.01,140.01 23.45,15.71 29.73,26.58 54.27,45.75 26.3,20.54 30.52,23.58 53.32,46.69l203.94 186.11c36.92,29.45 60.11,63.53 97.03,92.99 44.19,35.26 64.1,56.93 103.81,96.22l100.2 89.83c37.99,38.55 68.19,57.51 105.11,94.91l203.92 186.13c36.93,29.45 60.12,63.53 97.04,92.99l309.04 281.02c181.13,182.77 209.04,246.32 212.51,418.63l0 178.97c0,195.29 -269.78,480.06 -550.06,480.06 -285.02,0 -417.84,-100.02 -578.59,-301.53 -30.12,-37.75 -67.04,-63.78 -98.56,-101.48l-95.66 -104.36c-22.53,-23.41 -24.68,-32.2 -44.88,-55.13 -78.99,-89.7 -269.97,-280.1 -340.97,-369.12l-581.57 -618.59c-39.12,58.43 -116.92,112.27 -186.06,56.04 -103.19,-83.91 49.34,-206.06 56.04,-216.06 -38.14,-25.54 -103.9,-101.01 -132.5,-142.5l-587.61 592.55c3.08,37 14.16,71.54 19.57,110.46 43.29,312.1 -56.51,632.64 -276.96,852.32 -168.83,168.26 -401.09,277.44 -642.28,297.39l-158.33 0c-57.47,-4.82 -114.78,-14.98 -171.2,-30.96 -58.74,-16.64 -130.97,-32.58 -130.97,-109.06 0,-81.58 44.89,-99.9 102.51,-157.52 40.78,-40.78 74.24,-74.23 115.02,-115.01 258.78,-258.78 222.53,-164.03 222.53,-407.55 0,-26.31 -213.73,-240.03 -240.03,-240.03 -222.54,0 -153.78,-21.24 -287.54,112.52 -224.43,224.43 -419.58,514.41 -498.7,193.66 -161.6,-655.24 340.02,-1256.31 966.27,-1256.31 63.25,0 231.23,21.39 267.58,37.55l732.54 -737.64c-52.85,-35.4 -1034.1,-1029.08 -1142.64,-1137.65 -89.38,-89.39 -58.49,-83.87 -167.35,-82.68 -253.52,2.78 -225.85,-18.51 -322.09,-177.97 -65.59,-108.65 -125.8,-208.98 -191.3,-318.76 -32.37,-54.26 -176.86,-276.08 -176.86,-323.21 0,-56.9 202.97,-237.87 267.53,-302.54 44.92,-44.99 71.39,-70.71 100.09,-77.51zm2475.22 3282.91c-21.82,-31.37 -42.07,-43.6 -63.97,-71 -25.88,-32.38 -33.38,-47.95 -68.53,-71.5l427.59 -432.53c13.45,9.83 136.33,124.08 142.49,132.49l-437.58 442.54zm-2602.82 -2882.86l162.31 -167.74c186.48,96.66 416.52,257.14 587.79,347.77 0,117.55 -17.22,245.98 42.09,307.94l535.48 534.66c56.22,56.23 682.81,673.12 712.59,717.6l-137.6 142.43c-31.34,-45.66 -1118.97,-1126.36 -1239.78,-1245.37 -69.99,-68.96 -167.17,-47.2 -312.84,-47.2 -30.45,-45.48 -56.92,-93.02 -86.84,-143.18 -88.4,-148.19 -183.12,-294.49 -263.2,-446.9zm3640.48 190.03l0 270.03c0,86.05 119.74,184.77 177.52,242.53 37.4,37.4 68,67.38 104.91,105.12 84.3,86.19 163.81,62.41 337.64,62.41 173.89,0 252.05,-230.85 430.06,-350.05 0,261.64 -37.34,429.49 -207.6,622.51 -58.58,66.41 -159.9,137.53 -242.24,177.81 -243.53,119.16 -389.16,86.26 -608.22,36.76 -79.03,-17.86 -122.37,48.3 -169.59,95.54l-1820.25 1820.23c-214.32,214.32 -89.25,148.91 -82.48,377.55 2.59,87.37 8.98,139.94 -7.12,222.93 -63.95,329.52 -309.95,572.29 -631.81,638.36 -96.05,19.71 -162.72,8.82 -231.22,8.82 84.12,-125.62 340.04,-284.32 340.04,-380.05 0,-411.22 53.11,-266.07 -287.48,-612.63 -90.43,-92.01 -153.37,-67.46 -342.59,-67.46 -130.12,0 -168.22,88.25 -232.41,157.65 -39.78,43.02 -157.14,165.28 -197.65,192.4 0,-243.62 37.61,-440.49 202.4,-617.71 184.27,-198.2 444.52,-297.91 736.37,-251.03 163.98,26.33 136.07,89 283.9,-58.87 95.78,-95.8 184.25,-184.25 280.04,-280.04l1545.2 -1545.2c147.93,-147.93 135.31,-124.96 100.3,-265.32 -109.25,-437.94 168.75,-881.08 621.11,-973.52 121.28,-24.79 165.27,-8.82 231.21,-8.82 -56.09,83.75 -330.04,289.1 -330.04,380.05z"/>
   <path class="fil0" d="M1840.24 3200.41c0,77.42 74.45,90.02 130.01,90.02 46.69,0 608.52,-583.53 682.59,-657.59l505.08 -505.07c45.55,-45.56 142.51,-118.16 142.51,-197.52 0,-77.42 -74.45,-90.02 -130.01,-90.02 -47.16,0 -608.24,583.24 -682.6,657.59l-505.05 505.07c-45.56,45.56 -142.52,118.16 -142.52,197.52z"/>
   <path class="fil0" d="M3460.45 3550.46c0,92.18 137.46,192.48 232.53,287.54l495.05 495.07c50.24,50.24 199.42,227.52 272.55,227.52 77.44,0 124.94,-76.09 95.54,-144.69 -17.84,-41.65 -98.91,-113.69 -133.06,-147.85l-695.08 -685.08c-61.93,-61.94 -93.3,-122.52 -177.52,-122.52 -49.43,0 -90.01,40.58 -90.01,90.01z"/>
   <path class="fil0" d="M1560.2 3470.45c0,145.18 200.03,142.53 200.03,0 0,-125.36 -200.03,-126.23 -200.03,0z"/>
   <path class="fil0" d="M3380.43 1650.22c0,140.17 200.03,140.17 200.03,0 0,-128.98 -200.03,-128.98 -200.03,0z"/>
  </g>
 </g>
</svg>
